<?xml version="1.0" encoding="UTF-8"?>
<!-- Generator: Adobe Illustrator 16.0.4, SVG Export Plug-In . SVG Version: 6.00 Build 0)  -->
<!DOCTYPE svg PUBLIC "-//W3C//DTD SVG 1.1//EN" "http://www.w3.org/Graphics/SVG/1.1/DTD/svg11.dtd">
<svg version="1.1" id="Avatar" xmlns="http://www.w3.org/2000/svg" xmlns:xlink="http://www.w3.org/1999/xlink" x="0px" y="0px" width="117px" height="117px" viewBox="0 0 117 117" enable-background="new 0 0 117 117" xml:space="preserve">
<g id="Website_BG">
	<rect fill="#82BC00" width="117" height="117"/>
</g>
<g>
	<defs>
		<rect id="SVGID_1_" width="117" height="117"/>
	</defs>
	<clipPath id="SVGID_2_">
		<use xlink:href="#SVGID_1_" overflow="visible"/>
	</clipPath>
	<g clip-path="url(#SVGID_2_)">
		<radialGradient id="SVGID_3_" cx="37.4951" cy="65.8623" r="11.0094" gradientUnits="userSpaceOnUse">
			<stop offset="0" style="stop-color:#331305"/>
			<stop offset="0.5202" style="stop-color:#401F0A"/>
			<stop offset="0.9978" style="stop-color:#45230C"/>
		</radialGradient>
		<path fill="url(#SVGID_3_)" d="M44.427,78.916c1.269-2.413-2.475-4.293-2.475-7.521s-0.812-7.63-1.701-9.783    c0,0-4.894-7.073-4.982-9.557c0,0-6.887,1.062-4.443,8.883c1.49,2.484,7.035,11.716,7.608,13.496    C38.8,75.57,42.912,81.799,44.427,78.916z"/>
		<path fill="#260E06" d="M90.633,30.203c0.352,2.585-0.662,4.275-1.72,4.746c0,0,0.896-1.102-0.044-2.748    c0,0-0.524,5.145-2.586,7.64c0,0,0.353-1.528-0.822-4.114c0,0-1.998,11.284-3.996,12.929s-5.407-17.396-6.7-18.453    s0.353-5.172,5.76-5.759C85.931,23.856,90.633,30.203,90.633,30.203z"/>
		<path fill="#DFA387" d="M39.617,57.569c0.57,3.385,1.903,7.943,1.939,11.393c0.039,3.744-0.095,8.842-1.025,12.449    c-0.431,1.674-2.534,2.839-3.587,4.163c-0.787,0.988-3.12-0.014-2.775,1.094c0.432,1.391,1.6,5.445,2.688,6.374    c6.866,5.858,21.013,7.731,25.679,7.56c2.021-0.074,15.132-3.87,14.761-5.345c-0.393-1.562-2.113-2.814-2.213-4.634    c-0.107-1.97,0.032-5.929,0.032-5.929l0.016-6.462c0,0-4.029-0.891-5.364-1.448c-3.508-1.468-6.33-4.261-9.221-6.665    c-3.586-2.984-7-6.316-10.842-8.957c-3.73-2.563-8.127-3.929-12.528-3.941"/>
		<path fill="#F2B79A" d="M85.079,29.957c-0.6-3.178-1.441-6.685-2.427-8.169c-1.226-1.845-2.339-8.414-7.8-10.994    c-2.491-1.177-9.771-2.699-17.621-1.261c-7.919,1.452-8.979,1.734-14.936,8.158c-0.775,0.836-3.087,11.814-3.623,14.656    c-0.85,4.518-0.375,7.691-0.342,12.329c0.021,2.868,0.724,5.876,1.079,8.723c0.399,3.208,1.474,4.362,2.261,7.467    c0.543,2.141,2.603,9.108,5.864,11.944c2.641,2.297,9.68,4.997,15.703,8.835c3.969,2.528,8.08,1.86,9.916,1.418    c4.938-1.19,4.082-1.891,5.391-9.017c0.533-2.907,2.653-5.04,4.265-10.235c1.334-4.307,1.563-12.01,1.396-13.258    c-0.234-1.74-0.107-5.32-0.24-6.63c-0.263-2.612,1.702-1.976,2.289-3.449s0.498-2.749,0.399-4.035    C86.507,34.552,85.505,32.22,85.079,29.957z"/>
		<path fill="#DFA387" d="M86.854,55.36c0-2.406-0.958-4.819-1.335-7.056c-0.144-0.846-0.375-4.152,0.674-7.648    c0.089-0.296-2.006-1.092-4.937-0.785c-2.542,0.267-5.218,0.86-6.365,3.143c-0.457,0.909-0.295,1.932-0.121,2.399    c0.523,1.411,0.461,2.197,1.588,5.133c0.776,2.022,2.034,4.102,2.396,5.477c0.271,1.033-0.344,2.007-1.648,2.873    c-0.936,0.622-2.361,0.586-3.963,0.53c-1.038-0.037-2.546-0.357-3.23-0.446c-0.866-0.112-1.898,0.91-0.653,1.614    c0.69,0.391,1.976,0.104,3.653,0.838c0.931,0.408,1.174,2.477,0.592,6.179c-0.161,1.024-0.522,2.25-0.232,3.373    c0.259,1.003-1.356,1.938,0.368,5.261c0.887,1.709,1.086,5.109-0.486,6.818c7.445-0.43,6.706-3.739,8.896-7.815    c0.882-1.641,2.436-4.172,3.366-7.365C86.161,65.324,86.854,60.322,86.854,55.36z"/>
		<linearGradient id="SVGID_4_" gradientUnits="userSpaceOnUse" x1="40.1597" y1="61.2275" x2="40.1597" y2="63.0967">
			<stop offset="0" style="stop-color:#FFFFFF"/>
			<stop offset="1" style="stop-color:#000000"/>
		</linearGradient>
		<path fill="url(#SVGID_4_)" d="M40.531,62.861c0.223-0.402,0.363-0.814,0.277-1.352c-0.074-0.465-0.644-0.302-0.628,0.096    c0.028,0.721-0.021,1.475-0.696,1.432C39.484,63.037,40.313,63.254,40.531,62.861z"/>
		<g>
			<path fill="#F2B79A" d="M41.964,61.223c-0.935,0.275-1.531,0.879-2.567,0.726c-0.866-0.128-1.694-0.599-2.42-1.064     c-1.098-0.705-2.629-1.263-3.375-2.39c-0.954-1.439-0.983-3.338-1.403-4.963c-0.49-1.898-1.551-3.77-1.056-5.762     c0.303-1.216,0.49-2.12,1.185-3.256c1.005-1.644,3.36-1.326,4.793-0.378c1.423,0.94,1.986,2.715,3.35,3.707"/>
			<path fill="#DFA387" d="M35.108,47.715c0.236-0.146,2.79-0.778,2.797-0.738c-0.344-1.846-3.294-2.848-4.469-1.387     c-1.921,2.39-1.782,3.416-0.676,6.277C33.57,50.93,33.758,48.549,35.108,47.715z"/>
			<path fill="#DFA387" d="M39.021,52.746c0.007-0.758,0.414-2.466-0.377-3.006c-0.816-0.558-0.629,0.749-0.764,1.172     c-0.2,0.627-0.708,1.088-1.21,1.482c-0.438,0.344-0.816,0.756-1.306,1.023c-0.489,0.267-1.154,0.554-0.868,1.313     c0.247,0.653,1.557,0.476,2.107,0.583c0.568,0.111,1.074,0.435,1.582,0.693c0.27,0.138,0.862,0.763,1.127,0.692     C40.321,56.43,39.016,53.357,39.021,52.746z"/>
		</g>
		<path fill="#DFA387" d="M39.327,59.545c0.1-0.217-0.011-0.451-0.248-0.522s-0.509,0.046-0.609,0.263    c-0.1,0.217,0.011,0.451,0.248,0.522S39.227,59.761,39.327,59.545z"/>
		<linearGradient id="SVGID_5_" gradientUnits="userSpaceOnUse" x1="37.8335" y1="61.1641" x2="40.5312" y2="61.1641">
			<stop offset="0" style="stop-color:#FFFFFF"/>
			<stop offset="1" style="stop-color:#000000"/>
		</linearGradient>
		<path fill="url(#SVGID_5_)" d="M38.507,59.257c-0.449,0.477-1.065,1.872-0.339,3.185c0.662,1.196,2.169,0.842,2.363,0.42    c-0.974,0.362-1.693-0.201-1.89-1.215c-0.199-1.023,0.146-1.898,0.421-2.258C39.311,59.065,38.816,58.929,38.507,59.257z"/>
		<path fill="#FFFFFF" d="M36.944,85.807c-0.162-0.288,0.34-0.542,0.188-0.844c0,0-3.394,1.593-5.384,2.147    c-2.124,0.592-11.751,5.505-15.931,7.672c-9.653,5.005-13.357,9.532-15.69,13.608c-2.353,4.11-3.213,10.423-2.55,15.534    c12.873-0.298,111.178,0.2,117.104-0.02c0.429-3.724-0.444-9.678-1.861-13.078c-2.325-5.582-4.419-9.673-11.165-13.025    c-3.714-1.846-11.356-5.526-17.642-7.9c-1.836-0.693-3.873-1.396-6.417-2.123c-0.061,1.084-0.169,3.013-0.567,4.022    c-0.444,1.13-2.554,5.354-6.159,6.867c-2.284,0.958-10.829,0.626-13.184,0.538C47.351,98.819,42.176,95.079,36.944,85.807z"/>
		<path fill="#FFFFFF" d="M70.198,101.648c6.244-1.86,8.815-8.21,8.67-13.496c-1.272-0.374-2.64-0.783-3.811-0.928    c-0.062,1.084-1.074,7.562-4.798,9.453c-2.239,1.137-7.248,1.802-9.643,1.714c-10.511-0.387-15.423-2.929-21.258-11.888    c-0.515-0.789-0.747-1.196-0.615-2.439c-1.113,0.778-3.445,1.734-4.968,2.326C39.059,101.004,55.54,106.016,70.198,101.648z"/>
		<path fill="none" stroke="#EFEFEF" stroke-width="2" stroke-miterlimit="10" d="M33.776,86.391    c5.282,14.613,21.764,19.625,36.422,15.258c6.244-1.86,8.815-8.21,8.67-13.496"/>
		<path fill="#532C1E" d="M34.932,70.906"/>
		<path fill="#351E12" d="M58.972,39.603c-1.226,0.032-2.962,0.756-4.027,1.278c-0.965,0.473-2.492,1.1-2.089,1.497    c4.714-1.809,5.668-1.258,8.873-0.533c2.217,0.501,6.628,0.665,5.562-1.053C67.289,40.792,67.124,39.386,58.972,39.603z"/>
		<path fill="#351E12" d="M84.494,40.291c1.518,0.089,2.485,1.537,1.486,2.003c-0.36-2.097-4.724,0.535-8.058,0.163    c-0.665-0.074-0.616-0.786-0.081-1.356C78.378,40.531,79.057,39.972,84.494,40.291z"/>
		<g>
			<path fill="#FFFFFF" d="M66.473,47.426c-0.361-0.093-1.115-0.427-1.681-0.786c-2.4-1.525-3.732-1.36-5.263-0.68     c-1.196,0.532-3.035,1.688-3.933,2.555c1.2-0.077,1.94,0.231,2.788,0.306c1.029,0.091,1.838,0.268,2.867,0.14     C63.259,48.709,65.688,47.436,66.473,47.426"/>
			<path fill="#FFFFFF" d="M75.904,47.498c0.261-0.397,0.924-0.573,1.069-0.636c0.689-0.297,2.006-1.06,2.799-1.184     c0.974-0.151,1.91,0.041,2.841,0.393c1.032,0.39,1.635,0.881,2.25,1.451c-0.685,0.856-1.131,1.091-1.958,1.323     c-0.907,0.254-1.373,0.229-2.311,0.105C78.766,48.711,78.009,47.494,75.904,47.498"/>
			<g>
				<defs>
					<path id="SVGID_6_" d="M66.473,47.426c-0.361-0.093-1.114-0.427-1.681-0.786c-1.833-1.162-3.061-1.652-5.263-0.68       c-1.106,0.489-3.035,1.688-3.933,2.555c1.2-0.077,1.94,0.231,2.788,0.306c1.029,0.091,1.838,0.268,2.867,0.14       C63.259,48.709,65.688,47.436,66.473,47.426"/>
				</defs>
				<clipPath id="SVGID_7_">
					<use xlink:href="#SVGID_6_" overflow="visible"/>
				</clipPath>
				<g clip-path="url(#SVGID_7_)">
					
						<ellipse transform="matrix(0.9922 -0.1248 0.1248 0.9922 -5.4285 8.0223)" fill="#41637F" cx="61.31" cy="47.334" rx="2.398" ry="2.292"/>
					<ellipse transform="matrix(0.9922 -0.1249 0.1249 0.9922 -5.4324 8.0291)" cx="61.31" cy="47.334" rx="1.028" ry="0.982"/>
				</g>
			</g>
			<g>
				<defs>
					<path id="SVGID_8_" d="M75.904,47.498c0.261-0.397,0.924-0.573,1.069-0.636c0.689-0.297,2.006-1.06,2.799-1.184       c0.974-0.151,1.91,0.041,2.841,0.393c1.032,0.39,1.635,0.881,2.25,1.451c-0.685,0.856-1.131,1.091-1.958,1.323       c-0.907,0.254-1.373,0.229-2.311,0.105C78.766,48.711,78.009,47.494,75.904,47.498"/>
				</defs>
				<clipPath id="SVGID_9_">
					<use xlink:href="#SVGID_8_" overflow="visible"/>
				</clipPath>
				<g clip-path="url(#SVGID_9_)">
					
						<ellipse transform="matrix(0.9914 0.1311 -0.1311 0.9914 6.9161 -10.2184)" fill="#41637F" cx="81.086" cy="47.432" rx="2.068" ry="1.976"/>
					<ellipse transform="matrix(0.9914 0.1308 -0.1308 0.9914 6.9013 -10.1993)" cx="81.086" cy="47.432" rx="0.887" ry="0.847"/>
				</g>
			</g>
		</g>
		<path fill="#DFA387" d="M60.36,64.231c-1.065,0.956-0.891,1.712-0.635,2.539c-0.529-0.604-1.377-1.919-0.462-2.8    c0.743-0.714,2.581-1.809,5.702-2.743C64.966,61.228,62.562,62.257,60.36,64.231z"/>
		<g id="Mouth_2_">
			<path d="M68.437,66.139c1.457-0.078,3.352-0.285,4.605-0.051c0.933,0.175,2.345,0.561,3.297,0.267     c1.216-0.375,1.918-0.532,3.327-0.101c0.13,0.04,0.354,0.094,0.474,0.145c-1.104,0.847-1.23,1.651-1.7,2.601     c-0.727,1.473-1.563,2.184-2.622,2.392c-1.359,0.268-2.541,0.32-3.78-0.025c-1.875-0.521-3.146-1.186-4.031-1.823     c-0.745-0.535-4.629-2.973-5.814-4.096C64.295,66.193,66.979,66.218,68.437,66.139z"/>
			<path fill="#FFFFFF" d="M78.926,66.734c-0.71-0.148-1.52-0.297-2.593,0.034c-0.953,0.293-2.365-0.094-3.298-0.268     c-1.253-0.234-2.856-0.038-4.314,0.04c-0.959,0.053-3.041,0.108-4.774-0.358c0.568,0.348,3.484,1.944,7.829,2.391     c2.07,0.213,4.148,0.033,5.113-0.169C77.854,68.203,78.629,68.35,78.926,66.734z"/>
			<path fill="#D57880" d="M70.883,70.658c0.562,0.225,1.167,0.396,1.812,0.494c0.845,0.13,1.481,0.255,2.13,0.059     c0.689-0.209-0.1-0.561-0.375-0.711c-0.566-0.312-1.464-0.556-2.207-0.733c-0.577-0.138-2.499-0.248-3.171-0.147     C68.494,69.706,70.32,70.435,70.883,70.658z"/>
		</g>
		
			<radialGradient id="SVGID_10_" cx="58.8633" cy="36.5044" r="38.7883" fx="69.1284" fy="27.6716" gradientTransform="matrix(1 0 0 1.1435 0 -5.2395)" gradientUnits="userSpaceOnUse">
			<stop offset="0" style="stop-color:#331305"/>
			<stop offset="0.5202" style="stop-color:#401F0A"/>
			<stop offset="0.9978" style="stop-color:#45230C"/>
		</radialGradient>
		<path fill="url(#SVGID_10_)" d="M94.227,29.783c0,0,0.02-5.378-4.829-7.375c1.307-0.301,3.257-0.078,4.849,1.396    c0,0-0.507-3.644-3.697-4.605c-0.445-0.135-0.995-0.432-1.389-0.381c1.935-0.539,2.049-2.554,0.771-6.949    c0,0-1.004,1.802-2.163,1.802c0,0-0.271-2.671-2.167-4.08c0,0-0.927,0.94-1.235,0.862c-0.31-0.078-0.541-2.664-2.317-3.369    c0,0-4.283-1.271-4.684-1.959c0,0-0.601-1.248,0.633-3.023c-4.119-1.163-10.644,0.643-12.188,0.721    C64.264,2.9,57.96,1.497,50.535,2.919s-8.003,3.933-9.239,3.933c-1.236,0-4.712,1.332-5.176,3.37c0,0,1.467,0.235,0.927,0.862    s-6.154,1.489-6.231,4.544c0,0,1.082-0.705,1.082-0.156c0,0.548-4.24,2.683-4.395,3.702s-0.859,2.471-2.095,4.665    c-1.236,2.194-1.926,9.538-1.926,11.81c0,2.272,0.154,5.015,0.464,6.503c0.287,1.385-0.094,2.907,0.039,6.582l0,0    c-0.376,2.251,4.142,7.241,4.6,14.959c0,0,1.23,1.357,1.949,0.707c1.325,6.136,4.286,7.755,3.941,6.502    c-0.164-0.599-0.783-6.627,1.433-5.43c0,0,1.765-3.332,1.518-8.158c0,0,1.901-3.144,3.634-0.313c0,0,1.537-2.46,0.996-4.871    c-0.541-2.411,0.512-2.639,0.57-4.342c0,0,2.442,1.704,1.396,4.25c0,0,1.227-0.502,2.077-1.713    c0.637,1.602,1.498,3.152,2.425,3.079c0,0-0.053-2.609,1.089-5.716c0,0,0.925,1.915,2.675,2.527c0,0-0.488-3.346,1.107-8.361    c0.003-0.002,0.006-0.004,0.01-0.007c6.032-4.455,6.181-12.335,10.473-14.049c4.292-1.714,6.288-0.493,6.288-0.493    s0.538-2.334,4.057,1.487c2.009-2.978,3.972-1.995,3.497-0.842c0,0,4.103-3.137,8.94-0.062c2.543,1.616,1.347,8.442,1.347,8.442    s3.929-1.964,3.228-8.164C91.233,28.166,92.372,28.06,94.227,29.783z"/>
		<path fill="#CFD9E5" d="M36.944,85.574c-0.162-0.288,0.34-0.543,0.188-0.844c0,0-3.394,1.593-5.384,2.147    c-2.124,0.592-11.751,5.505-15.931,7.672c-9.653,5.005-13.357,9.532-15.69,13.608c-2.353,4.11-3.213,10.423-2.55,15.534    c12.873-0.298,111.178,0.2,117.104-0.02c0.429-3.724-0.444-9.678-1.861-13.078c-2.325-5.582-4.419-9.674-11.165-13.025    c-3.714-1.847-11.356-5.526-17.642-7.9c-1.836-0.693-6.369-2.257-8.913-2.985c-0.061,1.084,2.327,3.875,1.929,4.885    c-0.444,1.129-0.228,5.354-3.833,6.866c-2.284,0.959-3.389,18.653-5.742,18.565C57.118,116.613,42.176,94.847,36.944,85.574z"/>
		<path fill="#CFD9E5" d="M45.823,100.825c2.951,2.729,10.252,14.547,22.079,17.62c2.234-2.506,5.537-14.461,7.462-16.457    c2.359-2.446,5.425-8.641,0.709-9.54c-1.99-0.38-3.079,1.595-4.736,2.373c-2.793,1.312-2.181,21.457-3.883,22.179    c-1.919,0.814-8.22-11.457-10.665-16.753c-1.541-3.337-4.615-2.911-8.407-2.911"/>
		<path fill="#E4EEF9" d="M39.907,77.444c-0.417,0.349-0.791,0.822-0.926,1.086c-0.738,1.441-1.449,2.983-2.184,4.453    c-1.241,2.486-1.176,4.436-0.793,7.147c0.703,4.983,2.408,8.724,4.935,12.719c0.81,1.281,1.902,2.709,2.568,4.054    c0.785,1.586,0.879,3.491,1.864,5.014c1.875-2.369,3.073-5.854,3.17-8.927c0.087-2.771,0.19-4.963,3.285-5.003    c2.211-0.028,3.553,2.484,5.423,3.29c-1.606-4.812-4.505-5.789-6.857-8.195c-2.228-2.281-4.839-4.884-6.639-7.615    c-2.481-3.766-2.776-5.567-2.472-8.666C41.079,76.755,40.399,77.033,39.907,77.444z"/>
		<path fill="#E4EEF9" d="M75.092,85.417c0,2.323-0.599,4.948-1.513,5.919c-1.26,1.34-3.099,3.767-3.519,5.69    c1.68,0.125,2.578-2.945,3.979-1.779c1.229,1.023,1.116,3.041,1.169,4.532c0.111,3.093,2.872,4.443,4.559,7.684    c0.683-4.611-0.305-6.419,0.617-11.022C81.107,92.827,80.21,86.723,75.092,85.417"/>
	</g>
</g>
</svg>