<svg
   xmlns="http://www.w3.org/2000/svg" viewBox="150 200 600 600"
   version="1.1"
   width="100%"
   height="100%">

  <path
     d="m 450.35211,681.98964 c -9.79708,-48.09371 -27.07086,-88.11618 -47.99315,-125.2098 -15.51903,-27.51461 -33.49709,-52.91111 -50.13143,-79.59253 -5.55285,-8.90701 -10.34501,-18.31673 -15.6808,-27.5606 -10.66901,-18.48354 -19.31924,-39.91404 -18.7696,-67.71296 0.53709,-27.16108 8.39249,-48.9487 19.72009,-66.76276 18.63062,-29.29959 49.83754,-53.32208 91.70967,-59.63515 34.23561,-5.16163 66.3339,3.55886 89.09623,16.86887 18.60057,10.87675 33.00481,25.40562 43.95387,42.52847 11.4282,17.87166 19.29779,38.98528 19.95791,66.52517 0.33786,14.10961 -1.97254,27.17597 -5.22737,38.01428 -3.29398,10.97057 -8.59162,20.14089 -13.30493,29.93626 -9.20067,19.12087 -20.73577,36.64047 -32.31207,54.17048 -34.48098,52.21438 -66.84464,105.46443 -81.01842,178.43027 z"
     stroke-miterlimit="10"
     style="fill:none;stroke:#000000;stroke-width:46.26361465;stroke-linejoin:miter;stroke-miterlimit:10;stroke-opacity:1;stroke-dasharray:none"/>
  <circle
     d="m 1263.8781,740.047 c 0,101.25148 -82.0806,183.33203 -183.3321,183.33203 -101.25146,0 -183.33201,-82.08055 -183.33201,-183.33203 0,-101.25149 82.08055,-183.33203 183.33201,-183.33203 101.2515,0 183.3321,82.08054 183.3321,183.33203 z"
     r="183.33203"
     cy="740.047"
     cx="1080.546"
     id="circle6"
     style="fill:#000000;stroke:none"
     transform="matrix(0.27272921,0,0,0.27272921,155.30353,189.30311)" />
</svg>
