<?xml version="1.0" encoding="UTF-8" standalone="no"?>
<svg
xmlns:svg="http://www.w3.org/2000/svg"
xmlns="http://www.w3.org/2000/svg"
viewBox="0 0 218 128.3"
version="1.1">
<style>path {fill:none;stroke:#EEC977;stroke-width:2}</style>
<g transform="translate(-175.5,-155.5)">
  <path d="m 185,154.6 -10,10"/>
  <path d="m 195,154.6 -20,20"/>
  <path d="m 205,154.6 -30,30"/>
  <path d="m 215,154.6 -40,40"/>
  <path d="m 225,154.6 -50,50"/>
  <path d="m 235,154.6 -60,60"/>
  <path d="m 245,154.6 -70,70"/>
  <path d="m 255,154.6 -80,80"/>
  <path d="m 395,194.6 -90,90"/>
  <path d="m 395,184.6 -100,100"/>
  <path d="m 395,174.6 -110,110"/>
  <path d="m 395,164.6 -120,120"/>
  <path d="m 395,274.6 -10,10"/>
  <path d="m 395,264.6 -20,20"/>
  <path d="m 395,254.6 -30,30"/>
  <path d="m 395,244.6 -40,40"/>
  <path d="m 395,234.6 -50,50"/>
  <path d="m 395,224.6 -60,60"/>
  <path d="m 395,214.6 -70,70"/>
  <path d="m 395,204.6 -80,80"/>
  <path d="m 215,284.6 45,-45 5,5 -40,40"/>
  <path d="m 195,284.6 55,-55 5,5 -50,50"/>
  <path d="m 185,284.6 60,-60 -5,-5 -65,65"/>
  <path d="m 300,250 -65,-65.4 5,-5 L 305,245 z"/>
  <path d="m 275,154.6 -20,20 L 315,235 l -5,5 -65,-65.4 20,-20"/>
  <path d="m 355,154.6 -25,25 -5,-5 20,-20"/>
  <path d="m 235,284.6 35,-35 5,5 -30,30"/>
  <path d="m 255,284.6 25,-25 5,5 -20,20"/>
  <path d="m 175,274.6 60,-60 -5,-5 -55,55"/>
  <path d="m 175,255 50,-50.4 -5,-5 -45,45"/>
  <path d="m 290,260 -65,-65.4 5,-5 L 295,255 z"/>
  <path d="m 295,154.6 -20,20 L 325,225 l -5,5 -55,-55.4 20,-20"/>
  <path d="m 315,154.6 -20,20 L 335,215 l -5,5 -45,-45.4 20,-20"/>
  <path d="m 335,154.6 -20,20 L 345,205 l -5,5 -35,-35.4 20,-20"/>
  <path d="m 375,154.6 -35,35 -5,-5 30,-30"/>
  <path d="m 395,154.6 -45,45 -5,-5 40,-40"/>
</g>
</svg>
